# xmcd
#
# Track frame offsets:
#  150
#  20893
#  51920
#  73855
#  89728
#  116535
#  142498
#  190498
#  206896
#  231801
#
# Disc length: 3291 seconds
#
# Revision: 0
# Processed by: cddbd v1.5.1PL2 Copyright (c) Steve Scherf et al.
# Submitted via: Collectorz.com_Music_Collector 6.11
#
DISCID=a80cd90a
DTITLE=Thorpe, Matt - So Sweet The Blues
DYEAR=2000
DGENRE=Blues
TTITLE0=Southside Stumble
TTITLE1=So Sweet The Blues
TTITLE2=Just Got To Boogie
TTITLE3=Strat Street Strut
TTITLE4=Blues Infusion 
TTITLE5=Hogrill's End
TTITLE6=Dedication To The Blues
TTITLE7=Red Green Blues
TTITLE8=A Gunslingers Blues
TTITLE9=Now Liste Here
EXTD=
EXTT0=
EXTT1=
EXTT2=
EXTT3=
EXTT4=
EXTT5=
EXTT6=
EXTT7=
EXTT8=
EXTT9=
PLAYORDER=
